<?xml version="1.0" encoding="UTF-8" standalone="no"?>
<!DOCTYPE svg PUBLIC "-//W3C//DTD SVG 1.1//EN" "http://www.w3.org/Graphics/SVG/1.1/DTD/svg11.dtd">
<svg width="100%" height="100%" viewBox="0 0 64 64" version="1.1" xmlns="http://www.w3.org/2000/svg" xmlns:xlink="http://www.w3.org/1999/xlink" xml:space="preserve" xmlns:serif="http://www.serif.com/" style="fill-rule:evenodd;clip-rule:evenodd;stroke-linejoin:round;stroke-miterlimit:2;">
    <g transform="matrix(1,0,0,1,0,0.731891)">
        <path d="M62.031,31.268C61.457,31.99 59.88,33.903 57.53,36.216L61.737,43.954L53.773,39.624C52.007,41.094 50.014,42.575 47.84,43.908L49.992,52.851L43.173,46.372C40.546,47.533 37.74,48.39 34.814,48.734L32,58.253L29.186,48.734C26.26,48.39 23.455,47.534 20.827,46.372L14.008,52.851L16.16,43.908C13.985,42.575 11.993,41.094 10.227,39.624L2.263,43.954L6.47,36.216C4.12,33.903 2.543,31.99 1.969,31.268L9.974,31.268C11.488,33.392 20.779,45.75 32,45.75C43.221,45.75 52.512,33.392 54.026,31.268L62.031,31.268Z"/>
    </g>
</svg>
