<?xml version="1.0" encoding="UTF-8" standalone="no"?>
<!DOCTYPE svg PUBLIC "-//W3C//DTD SVG 1.1//EN" "http://www.w3.org/Graphics/SVG/1.1/DTD/svg11.dtd">
<svg width="100%" height="100%" viewBox="0 0 64 64" version="1.1" xmlns="http://www.w3.org/2000/svg" xmlns:xlink="http://www.w3.org/1999/xlink" xml:space="preserve" xmlns:serif="http://www.serif.com/" style="fill-rule:evenodd;clip-rule:evenodd;stroke-linejoin:round;stroke-miterlimit:2;">
    <g transform="matrix(1,0,0,1,0,-1.13511)">
        <path fill="black" d="M34.814,14.995C37.74,15.339 40.545,16.195 43.173,17.357L49.992,10.878L47.84,19.821C50.015,21.154 52.007,22.635 53.773,24.105L61.737,19.775L57.53,27.513C60.532,30.467 62.272,32.769 62.272,32.769C62.272,32.769 48.708,50.711 32,50.711C15.292,50.711 1.728,32.769 1.728,32.769C1.728,32.769 3.468,30.467 6.47,27.513L2.263,19.775L10.227,24.105C11.993,22.635 13.986,21.154 16.16,19.821L14.008,10.878L20.827,17.357C23.454,16.195 26.26,15.339 29.186,14.995L32,5.476L34.814,14.995ZM32,17.979C44.275,17.979 54.241,32.769 54.241,32.769C54.241,32.769 44.275,47.559 32,47.559C19.725,47.559 9.759,32.769 9.759,32.769C9.759,32.769 19.725,17.979 32,17.979ZM27.345,22.457C28.765,21.814 30.341,21.457 32,21.457C38.244,21.457 43.313,26.526 43.313,32.769C43.313,39.013 38.244,44.082 32,44.082C25.756,44.082 20.687,39.013 20.687,32.769C20.687,31.801 20.809,30.862 21.038,29.966C21.928,31.633 23.685,32.769 25.705,32.769C28.623,32.769 30.991,30.401 30.991,27.483C30.991,25.138 29.461,23.148 27.345,22.457Z"/>
    </g>
</svg>
